<svg xmlns="http://www.w3.org/2000/svg" width="339" height="66" fill="none" viewBox="0 0 339 66"><path fill="#1066a5" d="M35.008 61v-9.456h2.832q.608 0 1.04.176.449.176.672.608.24.415.24 1.152v5.456q0 .816-.256 1.264-.255.448-.736.624-.465.176-1.088.176zm1.04-.576h1.536q.544 0 .864-.288.336-.305.336-1.152v-5.376q0-.848-.336-1.152-.32-.304-.864-.304h-1.536zm5.584.576v-7.92h4v.704h-2.96v2.704h2.368v.768h-2.368v3.04h2.96V61zm7.232.096q-1.2 0-1.728-.544t-.528-1.728v-.448h1.008v.496q0 .864.32 1.248.32.368.96.368.591 0 .976-.32.4-.32.4-1.152 0-.592-.224-.896-.209-.305-.624-.48a16 16 0 0 0-1.024-.384 4.4 4.4 0 0 1-.896-.432 1.84 1.84 0 0 1-.624-.656q-.224-.4-.224-1.008 0-1.024.528-1.552.528-.544 1.76-.544 1.071 0 1.664.464.591.465.592 1.312v.832h-.976v-.624q0-.623-.32-.944t-.944-.32q-.689 0-.992.336-.304.32-.304 1.008 0 .512.224.816.24.288.608.464.367.16.784.288.752.24 1.184.496.448.256.64.656t.192 1.04q0 1.215-.688 1.712-.688.495-1.744.496M52.867 61v-7.92h.992V61zm4.873.144q-.608 0-1.088-.144a1.33 1.33 0 0 1-.736-.56q-.256-.416-.256-1.2v-4.496q0-1.04.608-1.408.624-.368 1.744-.368t1.728.384q.608.368.608 1.392v1.024h-.96v-1.056q0-.655-.336-.88-.336-.24-1.056-.24-.672 0-1.024.24-.336.225-.336.88v4.72q0 .689.352.912.352.208 1.008.208.608 0 .992-.288.4-.289.4-.832V57.8h-1.2v-.592h2.16V61h-.736l-.048-.736a3 3 0 0 1-.128.176l-.128.128q-.208.256-.608.416-.384.16-.96.16M62.101 61v-7.92h.88L65.877 59v-5.92h.88V61h-.88l-2.88-5.68V61zm6.61 0v-7.92h4v.704h-2.96v2.704h2.367v.768H69.75v3.04h2.96V61zm5.359 0v-7.92h2.784q.495 0 .928.128.447.128.72.464t.272.992v4.608q0 .928-.512 1.328-.496.4-1.536.4zm1.024-.56h1.504q.32 0 .592-.08a.77.77 0 0 0 .432-.32q.16-.24.16-.704v-4.544q0-.607-.288-.864-.287-.255-.896-.256h-1.504zm10.509.672q-.864 0-1.392-.336a1.93 1.93 0 0 1-.769-.928q-.223-.592-.223-1.376 0-.96.368-1.552a1.8 1.8 0 0 1 1.087-.816 2.4 2.4 0 0 1-.303-.576 2.8 2.8 0 0 1-.128-.896q.03-.816.496-1.28.48-.465 1.471-.464.496 0 .897.064.415.064.704.16.287.08.4.144v.768a2 2 0 0 0-.337-.096 5 5 0 0 0-.64-.144 4 4 0 0 0-.8-.08q-.527 0-.816.208a1 1 0 0 0-.383.544 1.5 1.5 0 0 0 0 .688q.08.352.272.672.063.112.255.352.193.224.416.512l.48.576q.241.271.416.48.194.208.273.304l.016-1.712h2.24V57h-1.52v.768q0 .288-.016.496 0 .192-.016.416.463.48.88.864.415.384.672.528v.96q-.257-.031-.768-.432a17 17 0 0 1-1.088-.976q-.16.608-.513.928-.336.32-.767.448a3.4 3.4 0 0 1-.864.112m.032-.72q.671 0 1.055-.352.4-.367.448-.976a155 155 0 0 0-1.168-1.28 15 15 0 0 1-.895-1.072q-.465.144-.752.544-.273.384-.272 1.168-.017.975.415 1.472.45.496 1.169.496M94.21 61v-9.456h2.832q.608 0 1.04.176.448.176.672.608.24.415.24 1.152v5.456q0 .816-.256 1.264-.255.448-.736.624-.465.176-1.088.176zm1.04-.576h1.536q.544 0 .864-.288.336-.305.336-1.152v-5.376q0-.848-.336-1.152-.32-.304-.864-.304H95.25zm5.584.576v-7.92h4v.704h-2.96v2.704h2.368v.768h-2.368v3.04h2.96V61zm6.416 0-1.728-7.92h1.008l1.392 6.704h-.032l1.392-6.704h.976L108.531 61zm4.288 0v-7.92h4v.704h-2.96v2.704h2.368v.768h-2.368v3.04h2.96V61zm5.359 0v-7.92h.976v7.216h2.592V61zm6.832.16q-.768 0-1.28-.16a1.43 1.43 0 0 1-.784-.624q-.256-.449-.256-1.248v-4.4q0-1.04.624-1.392.624-.368 1.712-.368 1.104 0 1.728.368t.624 1.392v4.4q0 .816-.272 1.264-.256.431-.784.608-.528.16-1.312.16m0-.608q.704 0 1.04-.24t.336-.88v-4.72q0-.672-.352-.896t-1.024-.224q-.656 0-1.008.224t-.352.896v4.72q0 .64.336.88.352.24 1.024.24m4.184.448v-7.92h2.88q.783 0 1.264.32.496.32.496.992v1.44q0 .449-.144.864a1.34 1.34 0 0 1-.56.688q-.417.256-1.264.256h-1.632V61zm1.04-3.952h1.344q.623 0 .944-.304.32-.32.32-1.024v-.928q0-.576-.288-.864a.98.98 0 0 0-.72-.288h-1.6zM133.929 61v-7.92h4v.704h-2.96v2.704h2.368v.768h-2.368v3.04h2.96V61zm5.36 0v-7.92h2.784q.496 0 .928.128.447.128.72.464t.272.992v4.608q0 .928-.512 1.328-.496.4-1.536.4zm1.023-.56h1.505q.32 0 .592-.08a.77.77 0 0 0 .432-.32q.16-.24.16-.704v-4.544q0-.607-.288-.864-.288-.255-.896-.256h-1.505zm8.445.56v-7.92h2.864q.784 0 1.264.32t.48.992v.96q0 .735-.48 1.12a1.16 1.16 0 0 1-.528.256 6 6 0 0 1-.496.064v-.016q.32 0 .608.064a.93.93 0 0 1 .496.224q.24.192.368.48.144.288.144.688v1.136q0 .912-.496 1.28-.495.352-1.52.352zm.992-.56h1.536q.32 0 .592-.064a.76.76 0 0 0 .432-.32q.16-.255.16-.752v-1.056q0-.56-.336-.784-.335-.24-.992-.24h-1.392zm0-3.872h1.36q.624 0 .96-.256.336-.272.336-.848v-.896q0-.465-.304-.688a1.15 1.15 0 0 0-.736-.24h-1.616zM156.14 61v-3.456l-1.728-4.464h1.024l1.184 3.072.064.32.064-.32 1.296-3.072h.928l-1.84 4.528V61z"/><path fill="#0d67a5" d="M203.432 47V18.104h-11.28V12.44h29.952v5.664h-11.28V47zm22.218 0V12.44h7.392V47zm3.456 0v-5.664h22.272V47zm0-14.88v-5.568h20.592v5.568zm0-14.016V12.44h21.696v5.664zm41.646 29.376q-3.744 0-6.912-1.296a16.9 16.9 0 0 1-5.52-3.744q-2.304-2.4-3.6-5.664-1.296-3.312-1.296-7.2t1.248-7.104q1.296-3.216 3.6-5.568a15.7 15.7 0 0 1 5.52-3.648q3.168-1.296 6.96-1.296 4.272 0 7.68 1.68 3.456 1.632 5.616 4.656 2.208 2.976 2.688 7.008h-7.2q-.624-3.696-3.024-5.568-2.4-1.92-5.712-1.92-2.928 0-5.184 1.392-2.208 1.392-3.456 4.032-1.248 2.592-1.248 6.288 0 3.744 1.248 6.48 1.296 2.688 3.552 4.176 2.256 1.44 5.184 1.44 3.12 0 5.52-1.872t3.12-5.568h7.296q-.624 4.032-2.832 7.056-2.208 2.976-5.616 4.608t-7.632 1.632m19.632-.48V12.44h7.392V47zm22.368 0V12.44h7.392V47zM293.84 26.168h22.272v5.664H293.84zM18.768 47.48q-3.552 0-6.576-1.296a16.2 16.2 0 0 1-5.184-3.696Q4.8 40.088 3.6 36.872q-1.2-3.264-1.2-7.152t1.2-7.104Q4.8 19.352 6.96 17a15.2 15.2 0 0 1 5.184-3.696q3.024-1.344 6.576-1.344 3.888 0 6.96 1.584a13.4 13.4 0 0 1 5.088 4.464q2.016 2.88 2.496 6.72h-3.936q-.576-4.272-3.408-6.72-2.784-2.496-7.152-2.496-3.696 0-6.48 1.824-2.784 1.776-4.32 4.992-1.536 3.168-1.536 7.392t1.536 7.44q1.536 3.168 4.32 4.992 2.784 1.776 6.432 1.776 4.464 0 7.296-2.496 2.88-2.496 3.408-6.72h3.936q-.48 3.84-2.496 6.72a13.4 13.4 0 0 1-5.088 4.464q-3.072 1.584-7.008 1.584M39.706 47V12.44h3.936V47zm23.136 0V12.44h3.936V47zm-21.12-19.728H64.57v3.456H41.722zM75.05 47V12.44h3.936V47zm2.016 0v-3.456h21.12V47zm0-16.272v-3.456h19.392v3.456zm0-14.832V12.44h20.736v3.456zM105.659 47V12.44h13.728q3.696 0 6.288 1.2t3.936 3.456q1.392 2.256 1.392 5.424t-1.392 5.472q-1.344 2.256-3.936 3.504t-6.288 1.248h-10.848v-3.456h10.704q3.84 0 5.808-1.728 2.016-1.776 2.016-5.04t-1.968-4.944-5.856-1.68h-9.648V47zm31.5 0V12.44h3.936V47zm26.924.48q-3.6 0-6.624-1.296a15.8 15.8 0 0 1-5.184-3.744q-2.208-2.448-3.456-5.712-1.2-3.264-1.2-7.152 0-5.136 2.112-9.12t5.808-6.24q3.744-2.256 8.496-2.256 4.848 0 8.544 2.256 3.744 2.256 5.856 6.24t2.112 9.168q0 3.888-1.248 7.152-1.2 3.264-3.408 5.664a15.7 15.7 0 0 1-5.232 3.744q-3.024 1.296-6.576 1.296m-.048-3.552q3.696 0 6.48-1.824 2.832-1.872 4.416-5.136t1.584-7.44q0-4.128-1.584-7.296-1.536-3.168-4.368-4.944-2.784-1.776-6.528-1.776t-6.528 1.776-4.32 4.944q-1.536 3.12-1.536 7.296 0 4.224 1.536 7.488 1.584 3.216 4.368 5.088 2.784 1.824 6.48 1.824"/><path stroke="#0d67a5" stroke-width="5" d="M185.5 2.5h143v53h-143z"/></svg>